<svg width="1122" height="1122" viewBox="0 0 1122 1122" fill="none" xmlns="http://www.w3.org/2000/svg">
<path d="M891.546 651.451L891.731 650.837C843.954 650.837 814.709 620.536 779.556 595.013C754.017 576.49 725.385 560.449 684.173 560.449C665.655 560.449 649.946 560.624 636.617 561.027H539.439C525.226 561.027 513.693 573.02 513.693 587.803C513.693 602.586 525.226 614.579 539.439 614.579H594.493H630.673C649.09 617.7 663.139 634.26 663.139 654.287C663.139 669.473 655.007 682.546 643.067 689.389C640.159 690.197 626.224 694.052 607.578 699.182C595.568 702.188 584.171 705.368 573.479 708.586L571.184 709.206C531.112 720.23 487.975 732.048 480.149 733.953C474.96 734.242 470.243 734.012 466.051 732.934L322.357 636.031L296.312 616.446V616.506C295.072 615.638 293.76 614.886 292.407 614.193C290.496 613.17 288.514 612.282 286.419 611.609C284.772 611.109 283.069 610.741 281.322 610.452C279.49 610.163 277.617 609.971 275.706 609.971C273.133 609.971 270.631 610.241 268.222 610.76C246.981 612.669 230.267 630.981 230.267 653.554C230.267 665.505 235.029 676.184 242.612 683.954L242.569 683.992L242.776 684.147C245.777 687.189 249.191 689.834 252.969 691.858L262.869 699.335L488.139 869.198V869.176C489.065 869.543 489.992 869.911 490.918 870.296C496.001 872.109 501.332 873.302 507.005 873.302C510.319 873.302 513.548 872.935 516.656 872.301L517.789 871.993C594.105 851.79 751.812 810.095 825.605 791.186C827.437 790.473 829.147 789.818 830.943 789.124C849.774 784.208 875.434 778.367 891.543 778.367V767.15L891.728 767.131L891.543 751.728V654.825L891.546 651.451Z" fill="#E3DCE8"/>
<path d="M434.363 477.506C432.232 475.268 430.357 472.88 428.361 470.566L340.891 561.55L354.305 575.502L441.847 484.444C440.735 483.421 439.566 482.534 438.497 481.475C437.271 480.26 435.938 479.163 434.734 477.891L434.363 477.506Z" fill="#16083B"/>
<path d="M438.739 239.212C437.513 237.94 436.195 236.881 434.955 235.663L434.712 235.879C372.723 300.357 370.749 403.348 428.361 470.566C430.357 472.878 432.232 475.265 434.363 477.505L434.734 477.892C435.938 479.164 437.271 480.26 438.497 481.477C439.566 482.537 440.735 483.423 441.847 484.445C506.453 544.353 605.412 542.389 667.402 477.909L667.773 477.505L667.402 477.061C610.395 417.749 521.948 411.214 457.827 457.206C502.04 390.529 495.775 298.546 438.739 239.212Z" fill="#DD9325"/>
<path d="M497.3 377.037C495.078 389.585 493.737 402.522 493.737 415.764L493.794 416.475L494.465 416.498C496.595 416.498 498.705 416.246 500.822 416.188C611.272 412.643 699.812 318.649 699.812 202.897L699.798 202.204L699.113 202.166C598.442 202.164 514.827 277.571 497.3 377.037Z" fill="#DD9325"/>
</svg>
